<svg width="186" height="186" viewBox="0 0 186 186" fill="none" xmlns="http://www.w3.org/2000/svg">
<path d="M49.9833 43.2501C75.4276 20.9652 114.006 23.4251 136.152 48.7104C147.192 61.3161 152.745 79.8191 152.269 98.0708C151.793 116.297 145.319 133.916 132.762 144.952C102.296 167.367 59.4533 156.455 40.79 126.502C26.4976 103.564 24.6744 65.4167 49.9833 43.2501Z" stroke="#DDE878" stroke-width="4.12747"/>
<path d="M71.7 82.426C74.8669 91.1974 73.3461 99.784 68.3031 101.605C63.2601 103.426 56.6047 97.791 53.4378 89.0196C52.0171 85.0846 53.1562 82.6071 55.873 80.2276C53.4935 77.5108 54.0541 70.8448 56.8347 69.8409C61.8776 68.0201 68.5331 73.6547 71.7 82.426Z" fill="#DDE878"/>
<path d="M106.702 65.4871C109.869 74.2584 108.348 82.845 103.305 84.6658C98.2621 86.4865 91.6067 80.852 88.4398 72.0806C87.019 68.1457 88.1582 65.6682 90.875 63.2887C88.4955 60.5718 89.056 53.9059 91.8366 52.9019C96.8796 51.0812 103.535 56.7157 106.702 65.4871Z" fill="#DDE878"/>
<path d="M132.606 80.3581C134.662 79.3336 137.115 80.6292 137.265 82.9218C137.882 92.371 136.351 101.736 132.782 110.128C128.629 119.894 121.903 127.903 113.456 133.142C105.008 138.382 95.2182 140.615 85.3235 139.562C77.4866 138.727 69.8629 135.859 63.0527 131.229C60.4986 129.492 61.0082 125.75 63.8052 124.44C65.3403 123.721 67.148 123.989 68.4623 125.059C73.9901 129.562 78.5898 131.815 85.7773 132.581C93.8664 133.443 103.672 130.448 110.579 126.165C117.485 121.882 123.834 113.763 127.229 105.779C130.317 98.5172 131.486 91.77 130.724 83.8418C130.586 82.4025 131.312 81.003 132.606 80.3581Z" fill="#DDE878"/>
</svg>
